<mxfile host="app.diagrams.net" modified="2022-01-31T13:03:05.268Z" agent="5.0 (Windows NT 10.0; Win64; x64) AppleWebKit/537.36 (KHTML, like Gecko) Chrome/97.0.4692.99 Safari/537.36" etag="IAQMrwp3ScZdFvcjXNRh" version="16.5.1" type="github">
  <diagram id="R2fejQ-cAysWn4t1BdOC" name="Page-1">
    <mxGraphModel dx="1422" dy="914" grid="1" gridSize="10" guides="1" tooltips="1" connect="1" arrows="1" fold="1" page="1" pageScale="1" pageWidth="1200" pageHeight="1600" math="0" shadow="0">
      <root>
        <mxCell id="0" />
        <mxCell id="1" parent="0" />
        <mxCell id="J7lf5xHKEmh0_3CaDGTx-1" style="edgeStyle=orthogonalEdgeStyle;rounded=0;orthogonalLoop=1;jettySize=auto;html=1;entryX=0.5;entryY=0;entryDx=0;entryDy=0;" edge="1" parent="1" source="J7lf5xHKEmh0_3CaDGTx-2" target="J7lf5xHKEmh0_3CaDGTx-30">
          <mxGeometry relative="1" as="geometry" />
        </mxCell>
        <mxCell id="J7lf5xHKEmh0_3CaDGTx-2" value="Passer une commande" style="strokeWidth=2;html=1;shape=mxgraph.flowchart.start_1;whiteSpace=wrap;fillColor=#dae8fc;strokeColor=#6c8ebf;" vertex="1" parent="1">
          <mxGeometry x="340" y="200" width="100" height="40" as="geometry" />
        </mxCell>
        <mxCell id="J7lf5xHKEmh0_3CaDGTx-3" value="" style="edgeStyle=orthogonalEdgeStyle;rounded=0;orthogonalLoop=1;jettySize=auto;html=1;" edge="1" parent="1" source="J7lf5xHKEmh0_3CaDGTx-4" target="J7lf5xHKEmh0_3CaDGTx-11">
          <mxGeometry relative="1" as="geometry" />
        </mxCell>
        <mxCell id="J7lf5xHKEmh0_3CaDGTx-4" value="Commande Recue" style="strokeWidth=2;html=1;shape=mxgraph.flowchart.start_1;whiteSpace=wrap;fillColor=#dae8fc;strokeColor=#6c8ebf;" vertex="1" parent="1">
          <mxGeometry x="340" y="470" width="100" height="60" as="geometry" />
        </mxCell>
        <mxCell id="J7lf5xHKEmh0_3CaDGTx-5" style="edgeStyle=orthogonalEdgeStyle;rounded=0;orthogonalLoop=1;jettySize=auto;html=1;entryX=1;entryY=0.5;entryDx=0;entryDy=0;" edge="1" parent="1" source="J7lf5xHKEmh0_3CaDGTx-7" target="J7lf5xHKEmh0_3CaDGTx-13">
          <mxGeometry relative="1" as="geometry">
            <Array as="points">
              <mxPoint x="660" y="910" />
            </Array>
          </mxGeometry>
        </mxCell>
        <mxCell id="J7lf5xHKEmh0_3CaDGTx-6" value="oui" style="edgeLabel;html=1;align=center;verticalAlign=middle;resizable=0;points=[];" vertex="1" connectable="0" parent="J7lf5xHKEmh0_3CaDGTx-5">
          <mxGeometry x="-0.8061" y="1" relative="1" as="geometry">
            <mxPoint as="offset" />
          </mxGeometry>
        </mxCell>
        <mxCell id="J7lf5xHKEmh0_3CaDGTx-7" value="jour livraison&lt;br&gt;FCH Temp&lt;br&gt;Livreur En Quai" style="rhombus;whiteSpace=wrap;html=1;strokeWidth=2;" vertex="1" parent="1">
          <mxGeometry x="570" y="680" width="180" height="110" as="geometry" />
        </mxCell>
        <mxCell id="J7lf5xHKEmh0_3CaDGTx-8" value="&#xa;&#xa;&lt;span style=&quot;color: rgb(0, 0, 0); font-family: helvetica; font-size: 12px; font-style: normal; font-weight: 400; letter-spacing: normal; text-align: center; text-indent: 0px; text-transform: none; word-spacing: 0px; background-color: rgb(248, 249, 250); display: inline; float: none;&quot;&gt;A Livree&lt;/span&gt;&#xa;&#xa;" style="edgeStyle=orthogonalEdgeStyle;rounded=0;orthogonalLoop=1;jettySize=auto;html=1;entryX=0.5;entryY=0;entryDx=0;entryDy=0;" edge="1" parent="1" source="J7lf5xHKEmh0_3CaDGTx-11" target="J7lf5xHKEmh0_3CaDGTx-7">
          <mxGeometry relative="1" as="geometry" />
        </mxCell>
        <mxCell id="J7lf5xHKEmh0_3CaDGTx-9" value="" style="edgeStyle=orthogonalEdgeStyle;rounded=0;orthogonalLoop=1;jettySize=auto;html=1;" edge="1" parent="1" source="J7lf5xHKEmh0_3CaDGTx-11" target="J7lf5xHKEmh0_3CaDGTx-13">
          <mxGeometry relative="1" as="geometry" />
        </mxCell>
        <mxCell id="J7lf5xHKEmh0_3CaDGTx-10" value="Comptoir" style="edgeLabel;html=1;align=center;verticalAlign=middle;resizable=0;points=[];" vertex="1" connectable="0" parent="J7lf5xHKEmh0_3CaDGTx-9">
          <mxGeometry x="-0.7053" y="1" relative="1" as="geometry">
            <mxPoint as="offset" />
          </mxGeometry>
        </mxCell>
        <mxCell id="J7lf5xHKEmh0_3CaDGTx-11" value="Type Livraison" style="rhombus;whiteSpace=wrap;html=1;strokeWidth=2;" vertex="1" parent="1">
          <mxGeometry x="320" y="580" width="140" height="110" as="geometry" />
        </mxCell>
        <mxCell id="J7lf5xHKEmh0_3CaDGTx-12" value="" style="edgeStyle=orthogonalEdgeStyle;rounded=0;orthogonalLoop=1;jettySize=auto;html=1;" edge="1" parent="1" source="J7lf5xHKEmh0_3CaDGTx-13" target="J7lf5xHKEmh0_3CaDGTx-28">
          <mxGeometry relative="1" as="geometry" />
        </mxCell>
        <mxCell id="J7lf5xHKEmh0_3CaDGTx-14" value="" style="edgeStyle=orthogonalEdgeStyle;rounded=0;orthogonalLoop=1;jettySize=auto;html=1;" edge="1" parent="1" source="J7lf5xHKEmh0_3CaDGTx-15" target="J7lf5xHKEmh0_3CaDGTx-17">
          <mxGeometry relative="1" as="geometry" />
        </mxCell>
        <mxCell id="J7lf5xHKEmh0_3CaDGTx-15" value="Qte Dispo" style="ellipse;whiteSpace=wrap;html=1;strokeWidth=2;" vertex="1" parent="1">
          <mxGeometry x="330" y="1080" width="120" height="60" as="geometry" />
        </mxCell>
        <mxCell id="J7lf5xHKEmh0_3CaDGTx-16" value="" style="edgeStyle=orthogonalEdgeStyle;rounded=0;orthogonalLoop=1;jettySize=auto;html=1;entryX=0.5;entryY=0;entryDx=0;entryDy=0;" edge="1" parent="1" source="J7lf5xHKEmh0_3CaDGTx-17" target="J7lf5xHKEmh0_3CaDGTx-20">
          <mxGeometry relative="1" as="geometry">
            <Array as="points" />
            <mxPoint x="390" y="1350" as="targetPoint" />
          </mxGeometry>
        </mxCell>
        <mxCell id="J7lf5xHKEmh0_3CaDGTx-17" value="Prête" style="ellipse;whiteSpace=wrap;html=1;strokeWidth=2;fillColor=#dae8fc;strokeColor=#6c8ebf;" vertex="1" parent="1">
          <mxGeometry x="330" y="1180" width="120" height="60" as="geometry" />
        </mxCell>
        <mxCell id="J7lf5xHKEmh0_3CaDGTx-18" value="" style="edgeStyle=orthogonalEdgeStyle;rounded=0;orthogonalLoop=1;jettySize=auto;html=1;exitX=0.5;exitY=1;exitDx=0;exitDy=0;entryX=0.5;entryY=0;entryDx=0;entryDy=0;" edge="1" parent="1" source="J7lf5xHKEmh0_3CaDGTx-20" target="J7lf5xHKEmh0_3CaDGTx-22">
          <mxGeometry relative="1" as="geometry">
            <mxPoint x="1059" y="1173" as="sourcePoint" />
            <Array as="points">
              <mxPoint x="389" y="1593" />
              <mxPoint x="389" y="1593" />
            </Array>
          </mxGeometry>
        </mxCell>
        <mxCell id="J7lf5xHKEmh0_3CaDGTx-19" style="edgeStyle=orthogonalEdgeStyle;rounded=0;orthogonalLoop=1;jettySize=auto;html=1;entryX=0.5;entryY=0;entryDx=0;entryDy=0;" edge="1" parent="1" source="J7lf5xHKEmh0_3CaDGTx-20" target="J7lf5xHKEmh0_3CaDGTx-34">
          <mxGeometry relative="1" as="geometry" />
        </mxCell>
        <mxCell id="J7lf5xHKEmh0_3CaDGTx-20" value="Validee" style="ellipse;whiteSpace=wrap;html=1;strokeWidth=2;fillColor=#dae8fc;strokeColor=#6c8ebf;" vertex="1" parent="1">
          <mxGeometry x="329" y="1433" width="120" height="60" as="geometry" />
        </mxCell>
        <mxCell id="J7lf5xHKEmh0_3CaDGTx-21" value="oui" style="edgeStyle=orthogonalEdgeStyle;rounded=0;orthogonalLoop=1;jettySize=auto;html=1;" edge="1" parent="1" source="J7lf5xHKEmh0_3CaDGTx-22" target="J7lf5xHKEmh0_3CaDGTx-24">
          <mxGeometry relative="1" as="geometry" />
        </mxCell>
        <mxCell id="J7lf5xHKEmh0_3CaDGTx-22" value="jour livraison&lt;br&gt;FCH Temp&lt;br&gt;Livreur En Quai" style="rhombus;whiteSpace=wrap;html=1;strokeWidth=2;" vertex="1" parent="1">
          <mxGeometry x="299" y="1613" width="180" height="110" as="geometry" />
        </mxCell>
        <mxCell id="J7lf5xHKEmh0_3CaDGTx-23" value="" style="edgeStyle=orthogonalEdgeStyle;rounded=0;orthogonalLoop=1;jettySize=auto;html=1;" edge="1" parent="1" source="J7lf5xHKEmh0_3CaDGTx-24" target="J7lf5xHKEmh0_3CaDGTx-26">
          <mxGeometry relative="1" as="geometry" />
        </mxCell>
        <mxCell id="J7lf5xHKEmh0_3CaDGTx-24" value="A Charger" style="ellipse;whiteSpace=wrap;html=1;strokeWidth=2;fillColor=#dae8fc;strokeColor=#6c8ebf;" vertex="1" parent="1">
          <mxGeometry x="329" y="1813" width="120" height="60" as="geometry" />
        </mxCell>
        <mxCell id="J7lf5xHKEmh0_3CaDGTx-25" value="" style="edgeStyle=orthogonalEdgeStyle;rounded=0;orthogonalLoop=1;jettySize=auto;html=1;" edge="1" parent="1" source="J7lf5xHKEmh0_3CaDGTx-26" target="J7lf5xHKEmh0_3CaDGTx-48">
          <mxGeometry relative="1" as="geometry">
            <Array as="points">
              <mxPoint x="389" y="2113" />
              <mxPoint x="389" y="2113" />
            </Array>
          </mxGeometry>
        </mxCell>
        <mxCell id="J7lf5xHKEmh0_3CaDGTx-26" value="debut de Charge" style="ellipse;whiteSpace=wrap;html=1;strokeWidth=2;fillColor=#dae8fc;strokeColor=#6c8ebf;" vertex="1" parent="1">
          <mxGeometry x="329" y="1993" width="120" height="60" as="geometry" />
        </mxCell>
        <mxCell id="J7lf5xHKEmh0_3CaDGTx-27" style="edgeStyle=orthogonalEdgeStyle;rounded=0;orthogonalLoop=1;jettySize=auto;html=1;entryX=0.5;entryY=0;entryDx=0;entryDy=0;" edge="1" parent="1" source="J7lf5xHKEmh0_3CaDGTx-28" target="J7lf5xHKEmh0_3CaDGTx-15">
          <mxGeometry relative="1" as="geometry" />
        </mxCell>
        <mxCell id="J7lf5xHKEmh0_3CaDGTx-28" value="&amp;nbsp;A Préparer" style="ellipse;whiteSpace=wrap;html=1;strokeWidth=2;fillColor=#dae8fc;strokeColor=#6c8ebf;" vertex="1" parent="1">
          <mxGeometry x="330" y="980" width="120" height="60" as="geometry" />
        </mxCell>
        <mxCell id="J7lf5xHKEmh0_3CaDGTx-29" style="edgeStyle=orthogonalEdgeStyle;rounded=0;orthogonalLoop=1;jettySize=auto;html=1;entryX=0.5;entryY=0;entryDx=0;entryDy=0;entryPerimeter=0;" edge="1" parent="1" source="J7lf5xHKEmh0_3CaDGTx-30" target="J7lf5xHKEmh0_3CaDGTx-4">
          <mxGeometry relative="1" as="geometry" />
        </mxCell>
        <mxCell id="J7lf5xHKEmh0_3CaDGTx-30" value="Donnée nécessaire:&lt;br&gt;-Articles&lt;br&gt;-client&lt;br&gt;-type livraison&lt;br&gt;-date livraison&lt;br&gt;-FCH Temps" style="whiteSpace=wrap;html=1;aspect=fixed;" vertex="1" parent="1">
          <mxGeometry x="325" y="280" width="130" height="130" as="geometry" />
        </mxCell>
        <mxCell id="J7lf5xHKEmh0_3CaDGTx-31" value="Gestion" style="swimlane;horizontal=0;fontSize=13;" vertex="1" parent="1">
          <mxGeometry x="240" y="1350" width="440" height="550" as="geometry">
            <mxRectangle x="270" y="1540" width="30" height="150" as="alternateBounds" />
          </mxGeometry>
        </mxCell>
        <mxCell id="J7lf5xHKEmh0_3CaDGTx-32" value="Confirmation" style="rhombus;whiteSpace=wrap;html=1;shadow=1;" vertex="1" parent="J7lf5xHKEmh0_3CaDGTx-31">
          <mxGeometry x="260" y="153" width="140" height="80" as="geometry" />
        </mxCell>
        <mxCell id="J7lf5xHKEmh0_3CaDGTx-33" value="Agent Saisie" style="swimlane;horizontal=0;fontSize=13;startSize=20;" vertex="1" parent="1">
          <mxGeometry x="40" y="1503" width="190" height="147" as="geometry" />
        </mxCell>
        <mxCell id="J7lf5xHKEmh0_3CaDGTx-34" value="Create Bon Livraison" style="ellipse;whiteSpace=wrap;html=1;strokeWidth=2;" vertex="1" parent="J7lf5xHKEmh0_3CaDGTx-33">
          <mxGeometry x="35" y="47" width="150" height="70" as="geometry" />
        </mxCell>
        <mxCell id="J7lf5xHKEmh0_3CaDGTx-35" value="Gestion" style="swimlane;horizontal=0;fontSize=13;" vertex="1" parent="1">
          <mxGeometry x="240" y="850" width="290" height="200" as="geometry" />
        </mxCell>
        <mxCell id="J7lf5xHKEmh0_3CaDGTx-13" value="Choix Magasinier" style="ellipse;whiteSpace=wrap;html=1;strokeWidth=2;" vertex="1" parent="J7lf5xHKEmh0_3CaDGTx-35">
          <mxGeometry x="90" y="50" width="120" height="60" as="geometry" />
        </mxCell>
        <mxCell id="J7lf5xHKEmh0_3CaDGTx-36" value="Commercial" style="swimlane;horizontal=0;fontSize=13;" vertex="1" parent="1">
          <mxGeometry x="240" y="160" width="290" height="400" as="geometry" />
        </mxCell>
        <mxCell id="J7lf5xHKEmh0_3CaDGTx-37" value="Magasinier" style="swimlane;horizontal=0;fontSize=13;" vertex="1" parent="1">
          <mxGeometry x="240" y="1060" width="290" height="200" as="geometry" />
        </mxCell>
        <mxCell id="J7lf5xHKEmh0_3CaDGTx-38" value="Livreur" style="swimlane;horizontal=0;fontSize=13;" vertex="1" parent="1">
          <mxGeometry x="230" y="1960" width="499.07" height="1120" as="geometry">
            <mxRectangle x="270" y="1540" width="30" height="150" as="alternateBounds" />
          </mxGeometry>
        </mxCell>
        <mxCell id="J7lf5xHKEmh0_3CaDGTx-39" value="Confirmation BLs" style="ellipse;whiteSpace=wrap;html=1;strokeWidth=2;" vertex="1" parent="J7lf5xHKEmh0_3CaDGTx-38">
          <mxGeometry x="99" y="410" width="120" height="60" as="geometry" />
        </mxCell>
        <mxCell id="J7lf5xHKEmh0_3CaDGTx-40" value="Possibilité Ajout Commande" style="strokeWidth=2;html=1;shape=mxgraph.flowchart.display;whiteSpace=wrap;" vertex="1" parent="J7lf5xHKEmh0_3CaDGTx-38">
          <mxGeometry x="160" y="318" width="114" height="60" as="geometry" />
        </mxCell>
        <mxCell id="J7lf5xHKEmh0_3CaDGTx-41" value="Charge En Cours" style="strokeWidth=2;html=1;shape=mxgraph.flowchart.display;whiteSpace=wrap;" vertex="1" parent="J7lf5xHKEmh0_3CaDGTx-38">
          <mxGeometry x="160" y="120" width="114" height="60" as="geometry" />
        </mxCell>
        <mxCell id="J7lf5xHKEmh0_3CaDGTx-42" value="Non Livrée" style="ellipse;whiteSpace=wrap;html=1;fillColor=#f5f5f5;strokeColor=#666666;strokeWidth=2;fontColor=#333333;" vertex="1" parent="J7lf5xHKEmh0_3CaDGTx-38">
          <mxGeometry x="250" y="840" width="120" height="60" as="geometry" />
        </mxCell>
        <mxCell id="J7lf5xHKEmh0_3CaDGTx-43" value="Arrivée" style="ellipse;whiteSpace=wrap;html=1;fillColor=#f5f5f5;strokeColor=#666666;strokeWidth=2;fontColor=#333333;" vertex="1" parent="J7lf5xHKEmh0_3CaDGTx-38">
          <mxGeometry x="60" y="840" width="120" height="60" as="geometry" />
        </mxCell>
        <mxCell id="J7lf5xHKEmh0_3CaDGTx-44" value="Retour Total" style="ellipse;whiteSpace=wrap;html=1;fillColor=#f5f5f5;strokeColor=#666666;fontColor=#333333;strokeWidth=2;" vertex="1" parent="J7lf5xHKEmh0_3CaDGTx-38">
          <mxGeometry x="190" y="980" width="120" height="60" as="geometry" />
        </mxCell>
        <mxCell id="J7lf5xHKEmh0_3CaDGTx-45" value="" style="edgeStyle=orthogonalEdgeStyle;rounded=0;orthogonalLoop=1;jettySize=auto;html=1;" edge="1" parent="J7lf5xHKEmh0_3CaDGTx-38" source="J7lf5xHKEmh0_3CaDGTx-43" target="J7lf5xHKEmh0_3CaDGTx-44">
          <mxGeometry relative="1" as="geometry">
            <Array as="points">
              <mxPoint x="120" y="950" />
              <mxPoint x="250" y="950" />
            </Array>
          </mxGeometry>
        </mxCell>
        <mxCell id="J7lf5xHKEmh0_3CaDGTx-46" value="Retour Partiel" style="ellipse;whiteSpace=wrap;html=1;fillColor=#f5f5f5;strokeColor=#666666;fontColor=#333333;strokeWidth=2;" vertex="1" parent="J7lf5xHKEmh0_3CaDGTx-38">
          <mxGeometry x="330" y="980" width="120" height="60" as="geometry" />
        </mxCell>
        <mxCell id="J7lf5xHKEmh0_3CaDGTx-47" value="" style="edgeStyle=orthogonalEdgeStyle;rounded=0;orthogonalLoop=1;jettySize=auto;html=1;" edge="1" parent="J7lf5xHKEmh0_3CaDGTx-38" source="J7lf5xHKEmh0_3CaDGTx-43" target="J7lf5xHKEmh0_3CaDGTx-46">
          <mxGeometry relative="1" as="geometry">
            <Array as="points">
              <mxPoint x="120" y="950" />
              <mxPoint x="400" y="950" />
            </Array>
          </mxGeometry>
        </mxCell>
        <mxCell id="J7lf5xHKEmh0_3CaDGTx-48" value="Fin Charge" style="ellipse;whiteSpace=wrap;html=1;strokeWidth=2;fillColor=#dae8fc;strokeColor=#6c8ebf;" vertex="1" parent="J7lf5xHKEmh0_3CaDGTx-38">
          <mxGeometry x="99" y="210" width="120" height="60" as="geometry" />
        </mxCell>
        <mxCell id="J7lf5xHKEmh0_3CaDGTx-49" value="" style="edgeStyle=orthogonalEdgeStyle;rounded=0;orthogonalLoop=1;jettySize=auto;html=1;" edge="1" parent="J7lf5xHKEmh0_3CaDGTx-38" source="J7lf5xHKEmh0_3CaDGTx-48" target="J7lf5xHKEmh0_3CaDGTx-39">
          <mxGeometry relative="1" as="geometry" />
        </mxCell>
        <mxCell id="J7lf5xHKEmh0_3CaDGTx-50" value="Livrée" style="ellipse;whiteSpace=wrap;html=1;fillColor=#f5f5f5;strokeColor=#666666;fontColor=#333333;strokeWidth=2;" vertex="1" parent="J7lf5xHKEmh0_3CaDGTx-38">
          <mxGeometry x="40" y="980" width="120" height="60" as="geometry" />
        </mxCell>
        <mxCell id="J7lf5xHKEmh0_3CaDGTx-51" value="" style="edgeStyle=orthogonalEdgeStyle;rounded=0;orthogonalLoop=1;jettySize=auto;html=1;" edge="1" parent="J7lf5xHKEmh0_3CaDGTx-38" source="J7lf5xHKEmh0_3CaDGTx-43" target="J7lf5xHKEmh0_3CaDGTx-50">
          <mxGeometry relative="1" as="geometry">
            <Array as="points">
              <mxPoint x="120" y="950" />
              <mxPoint x="100" y="950" />
            </Array>
          </mxGeometry>
        </mxCell>
        <mxCell id="J7lf5xHKEmh0_3CaDGTx-52" value="Kilometrage&lt;br&gt;+&lt;br&gt;Temp" style="rhombus;whiteSpace=wrap;html=1;strokeWidth=2;" vertex="1" parent="J7lf5xHKEmh0_3CaDGTx-38">
          <mxGeometry x="89" y="520" width="140" height="80" as="geometry" />
        </mxCell>
        <mxCell id="J7lf5xHKEmh0_3CaDGTx-53" style="edgeStyle=orthogonalEdgeStyle;rounded=0;orthogonalLoop=1;jettySize=auto;html=1;entryX=0.5;entryY=0;entryDx=0;entryDy=0;" edge="1" parent="J7lf5xHKEmh0_3CaDGTx-38" source="J7lf5xHKEmh0_3CaDGTx-39" target="J7lf5xHKEmh0_3CaDGTx-52">
          <mxGeometry relative="1" as="geometry">
            <mxPoint x="159" y="550" as="targetPoint" />
          </mxGeometry>
        </mxCell>
        <mxCell id="J7lf5xHKEmh0_3CaDGTx-54" value="Depart" style="ellipse;whiteSpace=wrap;html=1;strokeWidth=2;fillColor=#dae8fc;strokeColor=#6c8ebf;" vertex="1" parent="J7lf5xHKEmh0_3CaDGTx-38">
          <mxGeometry x="99" y="640" width="120" height="60" as="geometry" />
        </mxCell>
        <mxCell id="J7lf5xHKEmh0_3CaDGTx-55" value="" style="edgeStyle=orthogonalEdgeStyle;rounded=0;orthogonalLoop=1;jettySize=auto;html=1;entryX=0.5;entryY=0;entryDx=0;entryDy=0;exitX=0.5;exitY=1;exitDx=0;exitDy=0;" edge="1" parent="J7lf5xHKEmh0_3CaDGTx-38" source="J7lf5xHKEmh0_3CaDGTx-54" target="J7lf5xHKEmh0_3CaDGTx-42">
          <mxGeometry relative="1" as="geometry">
            <Array as="points">
              <mxPoint x="159" y="770" />
              <mxPoint x="310" y="770" />
            </Array>
            <mxPoint x="170" y="750" as="sourcePoint" />
          </mxGeometry>
        </mxCell>
        <mxCell id="J7lf5xHKEmh0_3CaDGTx-56" value="" style="edgeStyle=orthogonalEdgeStyle;rounded=0;orthogonalLoop=1;jettySize=auto;html=1;exitX=0.5;exitY=1;exitDx=0;exitDy=0;" edge="1" parent="J7lf5xHKEmh0_3CaDGTx-38" source="J7lf5xHKEmh0_3CaDGTx-54" target="J7lf5xHKEmh0_3CaDGTx-43">
          <mxGeometry relative="1" as="geometry">
            <Array as="points">
              <mxPoint x="159" y="770" />
              <mxPoint x="120" y="770" />
            </Array>
          </mxGeometry>
        </mxCell>
        <mxCell id="J7lf5xHKEmh0_3CaDGTx-57" style="edgeStyle=orthogonalEdgeStyle;rounded=0;orthogonalLoop=1;jettySize=auto;html=1;" edge="1" parent="J7lf5xHKEmh0_3CaDGTx-38" source="J7lf5xHKEmh0_3CaDGTx-52" target="J7lf5xHKEmh0_3CaDGTx-54">
          <mxGeometry relative="1" as="geometry" />
        </mxCell>
        <mxCell id="J7lf5xHKEmh0_3CaDGTx-58" style="edgeStyle=orthogonalEdgeStyle;rounded=0;orthogonalLoop=1;jettySize=auto;html=1;exitX=1;exitY=0.5;exitDx=0;exitDy=0;entryX=0.5;entryY=1;entryDx=0;entryDy=0;" edge="1" parent="1" source="J7lf5xHKEmh0_3CaDGTx-42" target="J7lf5xHKEmh0_3CaDGTx-32">
          <mxGeometry relative="1" as="geometry">
            <mxPoint x="560" y="1630" as="targetPoint" />
            <Array as="points">
              <mxPoint x="630" y="2830" />
              <mxPoint x="630" y="1650" />
              <mxPoint x="570" y="1650" />
            </Array>
          </mxGeometry>
        </mxCell>
        <mxCell id="J7lf5xHKEmh0_3CaDGTx-59" style="edgeStyle=orthogonalEdgeStyle;rounded=0;orthogonalLoop=1;jettySize=auto;html=1;entryX=1;entryY=0.5;entryDx=0;entryDy=0;" edge="1" parent="1" source="J7lf5xHKEmh0_3CaDGTx-32" target="J7lf5xHKEmh0_3CaDGTx-20">
          <mxGeometry relative="1" as="geometry">
            <Array as="points">
              <mxPoint x="570" y="1463" />
            </Array>
          </mxGeometry>
        </mxCell>
      </root>
    </mxGraphModel>
  </diagram>
</mxfile>
